<svg width="22" height="28" viewBox="0 0 22 28" fill="none" xmlns="http://www.w3.org/2000/svg">
<path d="M5.53108 26.4573C4.98436 26.2751 4.43765 25.9108 4.07318 25.1822C3.70871 24.8179 3.34423 24.2715 2.79752 23.5429C2.06857 22.45 1.33962 20.9928 0.792913 19.5356C0.246202 17.8963 0.0639648 16.2569 0.0639648 14.6176C0.0639648 12.7961 0.428439 11.3389 1.15739 10.0639C1.7041 8.97096 2.61528 8.24237 3.52647 7.51377C4.43765 6.96732 5.53108 6.60302 6.6245 6.60302C6.98897 6.60302 7.35345 6.60302 7.90016 6.78517C8.26463 6.78517 8.62911 6.96732 9.17582 7.14947C9.72253 7.33162 10.087 7.51377 10.2692 7.51377C10.6337 7.69592 10.9982 7.69592 11.1804 7.69592C11.3627 7.69592 11.5449 7.69592 11.9094 7.51377C12.0916 7.51377 12.4561 7.33162 12.8206 7.14947C13.185 6.96732 13.5495 6.78517 13.914 6.78517C14.2785 6.78517 14.6429 6.60302 15.0074 6.60302C15.3719 6.60302 15.9186 6.42087 16.2831 6.60302C17.012 6.60302 17.741 6.78517 18.4699 7.14947C19.5633 7.51377 20.4745 8.42452 21.2035 9.33526C21.0212 9.33526 20.6567 9.51741 20.4745 9.88171C19.9278 10.4282 19.3811 10.9746 19.0166 11.5211C18.6521 12.4318 18.2877 13.3425 18.2877 14.4354C18.2877 15.7105 18.6521 16.8034 19.1989 17.7141C19.5633 18.4427 20.2923 18.9892 20.839 19.3535C21.3857 19.5356 21.7502 19.7178 21.9324 19.8999C21.9324 20.2642 21.7502 20.8107 21.5679 20.9928C21.2035 22.0857 20.6567 22.8143 20.11 23.725C19.5633 24.4536 19.1989 25.0001 19.0166 25.1822C18.4699 25.7287 18.1054 26.2751 17.5587 26.4573C17.1942 26.8216 16.6475 27.0037 15.9186 27.0037C15.5541 27.0037 15.1896 27.0037 14.8252 26.8216C14.6429 26.8216 14.2785 26.6394 13.914 26.4573C13.3673 26.2751 13.185 26.093 12.8206 26.093C12.4561 25.9108 11.9094 25.9108 11.5449 25.9108C11.1804 25.9108 10.6337 25.9108 10.2692 26.093C9.90477 26.093 9.54029 26.2751 9.17582 26.4573C8.62911 26.6394 8.44687 26.8216 8.26463 26.8216C7.90016 27.0037 7.53568 27.0037 7.17121 27.0037C6.6245 27.0037 6.07779 26.8216 5.53108 26.4573ZM13.185 5.69228C12.4561 6.05658 11.7271 6.23873 10.9982 6.23873C10.816 5.51013 10.9982 4.78153 11.3627 3.87079C11.7271 3.14219 11.9094 2.59574 12.4561 2.04929C13.0028 1.50285 13.5495 0.9564 14.2785 0.592102C15.0074 0.227804 15.7364 0.0456543 16.4653 0.0456543C16.4653 0.774251 16.2831 1.50285 16.1008 2.41359C15.9186 3.14219 15.3719 3.68864 15.0074 4.23509C14.4607 4.96368 13.914 5.32798 13.185 5.69228Z" fill="#555555"/>
</svg>
