<svg width="32" height="32" viewBox="0 0 32 32" fill="none" xmlns="http://www.w3.org/2000/svg">
<g id="Download">
<path id="Vector" d="M15.9999 0.5C15.486 0.500529 14.9934 0.704881 14.6301 1.06821C14.2667 1.43154 14.0624 1.92417 14.0619 2.438V16.856L11.4789 14.273C10.5819 13.401 9.42885 13.623 8.75985 14.293C8.08985 14.963 7.86685 16.112 8.74485 17.018L14.6239 22.898C14.9739 23.259 15.4539 23.461 15.9739 23.466H15.9909C16.5109 23.466 17.0129 23.261 17.3699 22.903L23.2599 17.013C24.1309 16.111 23.9088 14.962 23.2399 14.292C22.5709 13.622 21.4219 13.402 20.5148 14.278L17.9369 16.856V2.437C17.9361 1.92352 17.7317 1.4313 17.3686 1.06821C17.0056 0.705124 16.5133 0.500793 15.9999 0.5Z" fill="#F69E18"/>
<path id="Vector_2" d="M4.22999 19.5957C3.71634 19.5962 3.22386 19.8004 2.86056 20.1636C2.49725 20.5267 2.29279 21.019 2.29199 21.5327V23.6767C2.29199 27.9907 5.80099 31.4997 10.115 31.4997H21.885C26.199 31.4997 29.708 27.9897 29.708 23.6767V21.5327C29.7072 21.0192 29.5029 20.527 29.1398 20.1639C28.7767 19.8008 28.2845 19.5965 27.771 19.5957C27.2573 19.5962 26.7649 19.8004 26.4016 20.1636C26.0383 20.5267 25.8338 21.019 25.833 21.5327V23.6767C25.8319 24.7235 25.4156 25.727 24.6755 26.4672C23.9353 27.2074 22.9317 27.6236 21.885 27.6247H10.115C9.06824 27.6236 8.06467 27.2074 7.3245 26.4672C6.58434 25.727 6.16805 24.7235 6.16699 23.6767V21.5327C6.1662 21.019 5.96173 20.5267 5.59843 20.1636C5.23513 19.8004 4.74365 19.5962 4.22999 19.5957Z" fill="#220075"/>
</g>
</svg>
