<svg width="25" height="25" viewBox="0 0 25 25" fill="none" xmlns="http://www.w3.org/2000/svg">
<path d="M23.06 12.7747C23.06 11.9947 22.99 11.2447 22.86 10.5247H12.5V14.7797H18.42C18.165 16.1547 17.39 17.3197 16.225 18.0997V20.8597H19.78C21.86 18.9447 23.06 16.1247 23.06 12.7747Z" fill="#4285F4"/>
<path d="M12.4999 23.5247C15.4699 23.5247 17.9599 22.5397 19.7799 20.8597L16.2249 18.0997C15.2399 18.7597 13.9799 19.1497 12.4999 19.1497C9.63492 19.1497 7.20992 17.2147 6.34492 14.6147H2.66992V17.4647C4.47992 21.0597 8.19992 23.5247 12.4999 23.5247Z" fill="#34A853"/>
<path d="M6.345 14.6147C6.125 13.9547 6 13.2497 6 12.5247C6 11.7997 6.125 11.0947 6.345 10.4347V7.58472H2.67C1.9 9.11757 1.49932 10.8093 1.5 12.5247C1.5 14.2997 1.925 15.9797 2.67 17.4647L6.345 14.6147Z" fill="#FBBC05"/>
<path d="M12.4999 5.89966C14.1149 5.89966 15.5649 6.45466 16.7049 7.54466L19.8599 4.38966C17.9549 2.61466 15.4649 1.52466 12.4999 1.52466C8.19992 1.52466 4.47992 3.98966 2.66992 7.58466L6.34492 10.4347C7.20992 7.83466 9.63492 5.89966 12.4999 5.89966Z" fill="#EA4335"/>
</svg>
