<svg width="37" height="37" viewBox="0 0 37 37" fill="none" xmlns="http://www.w3.org/2000/svg">
<g id="ic:round-cloud-upload" clip-path="url(#clip0_603_16019)">
<path id="Vector" d="M29.357 15.3959C28.8532 12.8425 27.4784 10.5432 25.4676 8.89081C23.4568 7.23839 20.9347 6.33535 18.332 6.33594C13.997 6.33594 10.232 8.79594 8.35703 12.3959C6.15238 12.6342 4.11354 13.6788 2.63226 15.3289C1.15099 16.9791 0.331774 19.1185 0.332031 21.3359C0.332031 26.3009 4.36703 30.3359 9.33203 30.3359H28.832C32.972 30.3359 36.332 26.9759 36.332 22.8359C36.332 18.8759 33.257 15.6659 29.357 15.3959ZM21.332 19.8359V25.8359H15.332V19.8359H10.832L17.807 12.8609C18.107 12.5609 18.572 12.5609 18.872 12.8609L25.832 19.8359H21.332Z" fill="#7A7A7A"/>
</g>
<defs>
<clipPath id="clip0_603_16019">
<rect width="36" height="36" fill="white" transform="translate(0.332764 0.333984)"/>
</clipPath>
</defs>
</svg>
