<svg width="25" height="25" viewBox="0 0 25 25" fill="none" xmlns="http://www.w3.org/2000/svg">
<g clip-path="url(#clip0_437_3776)">
<mask id="mask0_437_3776" style="mask-type:luminance" maskUnits="userSpaceOnUse" x="0" y="0" width="25" height="25">
<path d="M6.5865 24.5174C5.15904 24.4525 4.3836 24.215 3.86783 24.0138C3.18442 23.7478 2.69719 23.4311 2.18427 22.9189C1.67207 22.4068 1.35391 21.9196 1.08925 21.2363C0.888075 20.7206 0.650522 19.9452 0.585605 18.5179C0.514267 16.9751 0.5 16.5122 0.5 12.6034C0.5 8.69455 0.515694 8.23234 0.584891 6.68807C0.649808 5.26078 0.888788 4.48686 1.08853 3.96973C1.35462 3.2864 1.67207 2.79922 2.18356 2.28565C2.69576 1.77351 3.183 1.45539 3.86712 1.19076C4.38289 0.98961 5.15832 0.752085 6.58578 0.687176C8.12952 0.616561 8.59321 0.602295 12.5011 0.602295C16.4104 0.602295 16.8726 0.617987 18.4171 0.687176C19.8445 0.752085 20.6185 0.991037 21.1357 1.19076C21.8191 1.45539 22.3064 1.77351 22.8193 2.28565C23.3315 2.7978 23.6482 3.28568 23.9143 3.96901C24.1155 4.48472 24.353 5.26007 24.418 6.68735C24.4886 8.23162 24.5029 8.69383 24.5029 12.6027C24.5029 16.51 24.4886 16.9737 24.418 18.5179C24.353 19.9452 24.1141 20.7206 23.9143 21.2363C23.6482 21.9196 23.3315 22.4068 22.8193 22.9189C22.3071 23.4311 21.8191 23.7478 21.1357 24.0138C20.62 24.215 19.8445 24.4525 18.4171 24.5174C16.874 24.588 16.4104 24.6023 12.5011 24.6023C8.59321 24.6023 8.12952 24.5887 6.5865 24.5174Z" fill="white"/>
</mask>
<g mask="url(#mask0_437_3776)">
<mask id="mask1_437_3776" style="mask-type:luminance" maskUnits="userSpaceOnUse" x="-39" y="-39" width="103" height="103">
<path d="M-38.8823 -38.7747H63.9347V63.9802H-38.8823V-38.7747Z" fill="white"/>
</mask>
<g mask="url(#mask1_437_3776)">
<mask id="mask2_437_3776" style="mask-type:luminance" maskUnits="userSpaceOnUse" x="-39" y="-39" width="103" height="103">
<path d="M-38.8823 -38.7747H63.9347V63.9802H-38.8823V-38.7747Z" fill="white"/>
</mask>
<g mask="url(#mask2_437_3776)">
<path d="M-38.8823 -38.7747H63.8847V63.9802H-38.8823V-38.7747Z" fill="#333333"/>
</g>
</g>
</g>
<path d="M9.55761 12.6027C9.55761 10.9771 10.8752 9.65898 12.501 9.65898C14.1268 9.65898 15.4451 10.9771 15.4451 12.6027C15.4451 14.2283 14.1268 15.5465 12.501 15.5465C10.8752 15.5465 9.55761 14.2283 9.55761 12.6027ZM7.96608 12.6027C7.96608 15.1071 9.99634 17.1371 12.501 17.1371C15.0056 17.1371 17.0359 15.1071 17.0359 12.6027C17.0359 10.0984 15.0056 8.06835 12.501 8.06835C9.99634 8.06835 7.96608 10.0984 7.96608 12.6027ZM16.1556 7.8886C16.1556 8.4735 16.63 8.94855 17.2157 8.94855C17.8006 8.94855 18.2757 8.4735 18.2757 7.8886C18.2757 7.30371 17.8013 6.82937 17.2157 6.82937C16.63 6.82937 16.1556 7.30371 16.1556 7.8886ZM8.9327 19.7905C8.07166 19.7513 7.60368 19.6079 7.29265 19.4867C6.88032 19.3262 6.58641 19.135 6.27681 18.8262C5.96792 18.5173 5.77602 18.2234 5.61623 17.8112C5.49495 17.5002 5.35157 17.0322 5.31233 16.1713C5.26953 15.2405 5.26097 14.9609 5.26097 12.6027C5.26097 10.2446 5.27024 9.9657 5.31233 9.03414C5.35157 8.1732 5.49567 7.706 5.61623 7.39429C5.77674 6.98201 5.96792 6.68814 6.27681 6.37857C6.5857 6.06972 6.87961 5.87784 7.29265 5.71807C7.60368 5.59681 8.07166 5.45344 8.9327 5.41421C9.86365 5.37141 10.1433 5.36285 12.501 5.36285C14.8594 5.36285 15.1383 5.37212 16.07 5.41421C16.931 5.45344 17.3983 5.59752 17.71 5.71807C18.1224 5.87784 18.4163 6.06972 18.7259 6.37857C19.0348 6.68742 19.226 6.98201 19.3865 7.39429C19.5077 7.70529 19.6511 8.1732 19.6904 9.03414C19.7332 9.9657 19.7417 10.2446 19.7417 12.6027C19.7417 14.9601 19.7332 15.2397 19.6904 16.1713C19.6511 17.0322 19.507 17.5002 19.3865 17.8112C19.226 18.2234 19.0348 18.5173 18.7259 18.8262C18.417 19.135 18.1224 19.3262 17.71 19.4867C17.399 19.6079 16.931 19.7513 16.07 19.7905C15.139 19.8333 14.8594 19.8419 12.501 19.8419C10.1433 19.8419 9.86365 19.8333 8.9327 19.7905ZM8.85993 3.82571C7.91971 3.86851 7.27767 4.01759 6.71625 4.23585C6.13556 4.46125 5.64334 4.76369 5.15182 5.25443C4.66102 5.74517 4.35855 6.23734 4.13313 6.81867C3.91483 7.38003 3.76574 8.02199 3.72294 8.9621C3.67942 9.90364 3.66943 10.2046 3.66943 12.6027C3.66943 15.0008 3.67942 15.3018 3.72294 16.2433C3.76574 17.1835 3.91483 17.8254 4.13313 18.3868C4.35855 18.9674 4.66031 19.4603 5.15182 19.951C5.64262 20.4418 6.13485 20.7435 6.71625 20.9696C7.27839 21.1879 7.91971 21.3369 8.85993 21.3797C9.8023 21.4225 10.1026 21.4332 12.501 21.4332C14.9001 21.4332 15.2004 21.4232 16.142 21.3797C17.0823 21.3369 17.7243 21.1879 18.2857 20.9696C18.8664 20.7435 19.3586 20.4418 19.8502 19.951C20.341 19.4603 20.6427 18.9674 20.8689 18.3868C21.0871 17.8254 21.2369 17.1835 21.279 16.2433C21.3218 15.3011 21.3318 15.0008 21.3318 12.6027C21.3318 10.2046 21.3218 9.90364 21.279 8.9621C21.2362 8.02199 21.0871 7.38003 20.8689 6.81867C20.6427 6.23805 20.341 5.74588 19.8502 5.25443C19.3594 4.76369 18.8664 4.46125 18.2864 4.23585C17.7243 4.01759 17.0823 3.8678 16.1428 3.82571C15.2011 3.78292 14.9001 3.77222 12.5017 3.77222C10.1026 3.77222 9.8023 3.7822 8.85993 3.82571Z" fill="white"/>
</g>
<defs>
<clipPath id="clip0_437_3776">
<rect width="24" height="24" fill="white" transform="translate(0.5 0.602295)"/>
</clipPath>
</defs>
</svg>
