<svg width="25" height="25" viewBox="0 0 25 25" fill="none" xmlns="http://www.w3.org/2000/svg">
<path d="M21.5907 1.94824H3.18194C2.30042 1.94824 1.58594 2.64088 1.58594 3.49576V22C1.58594 22.8549 2.30066 23.5482 3.18194 23.5482H21.5907C22.4722 23.5482 23.1857 22.8546 23.1857 22V3.49576C23.1857 2.64112 22.4722 1.94824 21.5907 1.94824ZM8.13434 20.0289H4.87082V10.2767H8.13434V20.0289ZM6.50282 8.94448H6.48098C5.38658 8.94448 4.67714 8.19592 4.67714 7.25896C4.67714 6.30304 5.40746 5.57488 6.52346 5.57488C7.6397 5.57488 8.32634 6.3028 8.34794 7.25896C8.34794 8.19616 7.63994 8.94448 6.50282 8.94448ZM19.8987 20.0289H16.6361V14.8113C16.6361 13.4999 16.1633 12.6054 14.9835 12.6054C14.0808 12.6054 13.5451 13.209 13.3099 13.7915C13.2226 13.9998 13.2012 14.2907 13.2012 14.5816V20.0286H9.93914C9.93914 20.0286 9.98186 11.1911 9.93914 10.2765H13.2015V11.6591C13.6347 10.9948 14.4084 10.047 16.1412 10.047C18.2885 10.047 19.8987 11.44 19.8987 14.4369V20.0289ZM13.1803 11.6901C13.1861 11.681 13.1938 11.6697 13.2015 11.6591V11.6901H13.1803Z" fill="#333333"/>
</svg>
