<svg width="33" height="32" viewBox="0 0 33 32" fill="none" xmlns="http://www.w3.org/2000/svg">
<g id="material-symbols:arrow-circle-right-rounded">
<path id="Vector" d="M17.4344 20.4013L20.9011 16.9346C21.1455 16.6902 21.2677 16.3791 21.2677 16.0013C21.2677 15.6235 21.1455 15.3124 20.9011 15.068L17.4011 11.568C17.1566 11.3235 16.8513 11.2066 16.4851 11.2173C16.1179 11.2289 15.8122 11.3569 15.5677 11.6013C15.3233 11.8457 15.2011 12.1569 15.2011 12.5346C15.2011 12.9124 15.3233 13.2235 15.5677 13.468L16.7677 14.668H12.4677C12.0899 14.668 11.7788 14.7955 11.5344 15.0506C11.2899 15.3066 11.1677 15.6235 11.1677 16.0013C11.1677 16.3791 11.2957 16.6955 11.5517 16.9506C11.8068 17.2066 12.1233 17.3346 12.5011 17.3346H16.7677L15.5344 18.568C15.2899 18.8124 15.1731 19.1182 15.1837 19.4853C15.1953 19.8515 15.3233 20.1569 15.5677 20.4013C15.8122 20.6457 16.1233 20.768 16.5011 20.768C16.8788 20.768 17.1899 20.6457 17.4344 20.4013ZM16.5011 29.3346C14.6566 29.3346 12.9233 28.9844 11.3011 28.284C9.67884 27.5844 8.26772 26.6346 7.06772 25.4346C5.86772 24.2346 4.91795 22.8235 4.21839 21.2013C3.51795 19.5791 3.16772 17.8457 3.16772 16.0013C3.16772 14.1569 3.51795 12.4235 4.21839 10.8013C4.91795 9.17908 5.86772 7.76797 7.06772 6.56797C8.26772 5.36797 9.67884 4.41775 11.3011 3.7173C12.9233 3.01775 14.6566 2.66797 16.5011 2.66797C18.3455 2.66797 20.0788 3.01775 21.7011 3.7173C23.3233 4.41775 24.7344 5.36797 25.9344 6.56797C27.1344 7.76797 28.0842 9.17908 28.7837 10.8013C29.4842 12.4235 29.8344 14.1569 29.8344 16.0013C29.8344 17.8457 29.4842 19.5791 28.7837 21.2013C28.0842 22.8235 27.1344 24.2346 25.9344 25.4346C24.7344 26.6346 23.3233 27.5844 21.7011 28.284C20.0788 28.9844 18.3455 29.3346 16.5011 29.3346Z" fill="#F69E18"/>
</g>
</svg>
