<svg width="24" height="25" viewBox="0 0 24 25" fill="none" xmlns="http://www.w3.org/2000/svg">
<g id="material-symbols:keyboard-arrow-down-rounded">
<path id="Vector" d="M12 9.40169C12.1333 9.40169 12.2623 9.42774 12.387 9.47982C12.5123 9.5319 12.6166 9.60135 12.7 9.68815L17.3 14.4798C17.4833 14.6708 17.575 14.9138 17.575 15.209C17.575 15.5041 17.4833 15.7472 17.3 15.9382C17.1166 16.1291 16.8833 16.2246 16.6 16.2246C16.3166 16.2246 16.0833 16.1291 15.9 15.9382L12 11.8757L8.09995 15.9382C7.91662 16.1291 7.68328 16.2246 7.39995 16.2246C7.11662 16.2246 6.88329 16.1291 6.69995 15.9382C6.51662 15.7472 6.42495 15.5041 6.42495 15.209C6.42495 14.9138 6.51662 14.6708 6.69995 14.4798L11.3 9.68815C11.4 9.58398 11.5083 9.51037 11.625 9.46732C11.7416 9.42357 11.8666 9.40169 12 9.40169Z" fill="white"/>
</g>
</svg>
