<svg width="33" height="33" viewBox="0 0 33 33" fill="none" xmlns="http://www.w3.org/2000/svg">
<g id="plus">
<path id="Shape" d="M27.5526 15.4257H17.4474V5.32042C17.4474 4.7972 17.0232 4.37305 16.5 4.37305C15.9768 4.37305 15.5526 4.7972 15.5526 5.32042V15.4257H5.44737C4.92415 15.4257 4.5 15.8498 4.5 16.373C4.5 16.8963 4.92415 17.3204 5.44737 17.3204H15.5526V27.4257C15.5526 27.9489 15.9768 28.373 16.5 28.373C17.0232 28.373 17.4474 27.9489 17.4474 27.4257V17.3204H27.5526C28.0758 17.3204 28.5 16.8963 28.5 16.373C28.5 15.8498 28.0758 15.4257 27.5526 15.4257Z" fill="white" stroke="white" stroke-width="1.5"/>
</g>
</svg>
