<svg width="25" height="25" viewBox="0 0 25 25" fill="none" xmlns="http://www.w3.org/2000/svg">
<g clip-path="url(#clip0_437_3771)">
<path d="M19.3815 0.602295H5.6185C2.79163 0.602295 0.5 2.89393 0.5 5.72079V19.4838C0.5 22.3107 2.79163 24.6023 5.6185 24.6023H19.3815C22.2084 24.6023 24.5 22.3107 24.5 19.4838V5.72079C24.5 2.89393 22.2084 0.602295 19.3815 0.602295Z" fill="#333333"/>
<path fill-rule="evenodd" clip-rule="evenodd" d="M19.7996 8.96206C19.2734 9.19502 18.7153 9.34788 18.1438 9.41556C18.7415 9.05698 19.1985 8.49099 19.4094 7.81954C18.8441 8.1546 18.2259 8.39116 17.5814 8.51912C17.1864 8.09512 16.6728 7.8 16.1076 7.67225C15.5424 7.5445 14.9518 7.59005 14.4129 7.80296C13.874 8.01588 13.4117 8.38627 13.0864 8.86582C12.7611 9.34538 12.5879 9.91183 12.5894 10.4913C12.5887 10.7125 12.6135 10.9331 12.6632 11.1487C11.5166 11.0912 10.3948 10.7932 9.37066 10.2742C8.34655 9.75521 7.44299 9.02669 6.7186 8.13593C6.34805 8.77091 6.23411 9.52348 6.40009 10.2397C6.56608 10.9559 6.99944 11.5816 7.61153 11.9889C7.15293 11.9745 6.70447 11.8503 6.30378 11.6268V11.6619C6.30378 13.0611 7.29865 14.2282 8.61695 14.4919C8.19286 14.6076 7.74786 14.6244 7.31623 14.5411C7.50058 15.1139 7.85914 15.6148 8.34188 15.9741C8.82462 16.3333 9.40746 16.5328 10.0091 16.5449C9.4107 17.0152 8.72543 17.3629 7.9925 17.568C7.25956 17.7731 6.49337 17.8316 5.73779 17.7402C7.0139 18.5593 8.52906 19.0338 10.1602 19.0338C15.4686 19.0338 18.3688 14.6395 18.3688 10.8253C18.3688 10.7022 18.3688 10.5792 18.3618 10.4526C18.9243 10.0483 19.4164 9.5386 19.8031 8.96206H19.7996Z" fill="white"/>
</g>
<defs>
<clipPath id="clip0_437_3771">
<rect width="24" height="24" fill="white" transform="translate(0.5 0.602295)"/>
</clipPath>
</defs>
</svg>
