<svg width="16" height="17" viewBox="0 0 16 17" fill="none" xmlns="http://www.w3.org/2000/svg">
<g id="Wallet" clip-path="url(#clip0_1765_8542)">
<path id="Vector" d="M12.1544 2.36816H1.74658V3.77696H12.1544V2.36816Z" fill="#D6FBE9"/>
<path id="Vector_2" d="M12.9856 3.40722L12.9872 0.500015H2.9088C2.44023 0.498102 1.98887 0.676434 1.64815 0.998095C1.30742 1.31976 1.10343 1.76011 1.0784 2.22802L1.0768 9.33041V10.1992H1.0752V12.1288C1.0754 12.6431 1.27977 13.1362 1.64339 13.4998C2.00702 13.8634 2.50015 14.0678 3.0144 14.068H3.8032C3.738 13.8107 3.70522 13.5463 3.7056 13.2808C3.7056 12.427 4.04476 11.6082 4.64848 11.0045C5.25219 10.4008 6.07101 10.0616 6.9248 10.0616C7.77858 10.0616 8.5974 10.4008 9.20111 11.0045C9.80483 11.6082 10.144 12.427 10.144 13.2808C10.1444 13.5463 10.1116 13.8107 10.0464 14.068H12.9856C13.4998 14.0678 13.993 13.8634 14.3566 13.4998C14.7202 13.1362 14.9246 12.6431 14.9248 12.1288V5.34642C14.9248 5.09175 14.8747 4.83956 14.7773 4.60427C14.6798 4.36898 14.537 4.15519 14.3569 3.97511C14.1768 3.79504 13.963 3.6522 13.7277 3.55476C13.4924 3.45731 13.2403 3.40718 12.9856 3.40722ZM3.0544 1.33042H12.1552V3.40722H3.0544C2.77899 3.40722 2.51487 3.29781 2.32014 3.10307C2.1254 2.90834 2.016 2.64422 2.016 2.36882C2.016 2.09341 2.1254 1.82929 2.32014 1.63456C2.51487 1.43982 2.77899 1.33042 3.0544 1.33042ZM12.528 9.19601C12.4278 9.19617 12.3299 9.16663 12.2465 9.11112C12.1632 9.0556 12.0981 8.97662 12.0597 8.88415C12.0212 8.79167 12.011 8.68987 12.0304 8.59161C12.0498 8.49334 12.0978 8.40304 12.1686 8.3321C12.2393 8.26117 12.3294 8.2128 12.4276 8.1931C12.5258 8.17341 12.6277 8.18328 12.7202 8.22146C12.8128 8.25964 12.892 8.32442 12.9478 8.40761C13.0036 8.4908 13.0334 8.58866 13.0336 8.68882C13.0336 8.82304 12.9803 8.95179 12.8856 9.04685C12.7908 9.14191 12.6622 9.19555 12.528 9.19601Z" fill="#220075"/>
<path id="Vector_3" d="M10.144 13.2807C10.1444 13.5462 10.1116 13.8106 10.0464 14.0679H3.80317C3.73798 13.8106 3.70519 13.5462 3.70557 13.2807C3.70557 12.4269 4.04473 11.6081 4.64845 11.0044C5.25217 10.4007 6.07098 10.0615 6.92477 10.0615C7.77855 10.0615 8.59737 10.4007 9.20109 11.0044C9.80481 11.6081 10.144 12.4269 10.144 13.2807Z" fill="#F69E18"/>
<path id="Vector_4" d="M10.0464 14.0684C9.87111 14.7634 9.46885 15.3801 8.90339 15.8206C8.33794 16.2611 7.64163 16.5004 6.92482 16.5004C6.20801 16.5004 5.51171 16.2611 4.94625 15.8206C4.3808 15.3801 3.97854 14.7634 3.80322 14.0684H10.0464Z" fill="#F69E18"/>
</g>
<defs>
<clipPath id="clip0_1765_8542">
<rect width="16" height="16" fill="white" transform="translate(0 0.5)"/>
</clipPath>
</defs>
</svg>
