<svg width="17" height="16" viewBox="0 0 17 16" fill="none" xmlns="http://www.w3.org/2000/svg">
<path d="M13.1666 1.33203H3.83325C3.30282 1.33203 2.79411 1.54274 2.41904 1.91782C2.04397 2.29289 1.83325 2.8016 1.83325 3.33203V4.11203C1.83316 4.38733 1.8899 4.65968 1.99992 4.91203V4.95203C2.09411 5.16601 2.22751 5.36047 2.39325 5.52536L6.49992 9.60536V13.9987C6.49969 14.112 6.52834 14.2235 6.58317 14.3226C6.63799 14.4218 6.71718 14.5053 6.81325 14.5654C6.91935 14.6311 7.04177 14.6658 7.16658 14.6654C7.27095 14.6647 7.3737 14.6396 7.46658 14.592L10.1333 13.2587C10.2432 13.2033 10.3356 13.1185 10.4004 13.0138C10.4651 12.9091 10.4995 12.7885 10.4999 12.6654V9.60536L14.5799 5.52536C14.7457 5.36047 14.8791 5.16601 14.9733 4.95203V4.91203C15.0925 4.66165 15.1583 4.38922 15.1666 4.11203V3.33203C15.1666 2.8016 14.9559 2.29289 14.5808 1.91782C14.2057 1.54274 13.697 1.33203 13.1666 1.33203ZM9.35992 8.8587C9.29813 8.92099 9.24925 8.99487 9.21607 9.07609C9.18289 9.15732 9.16608 9.24429 9.16658 9.33203V12.252L7.83325 12.9187V9.33203C7.83376 9.24429 7.81694 9.15732 7.78377 9.07609C7.75059 8.99487 7.70171 8.92099 7.63992 8.8587L4.10659 5.33203H12.8933L9.35992 8.8587ZM13.8333 3.9987H3.16659V3.33203C3.16659 3.15522 3.23682 2.98565 3.36185 2.86063C3.48687 2.7356 3.65644 2.66536 3.83325 2.66536H13.1666C13.3434 2.66536 13.513 2.7356 13.638 2.86063C13.763 2.98565 13.8333 3.15522 13.8333 3.33203V3.9987Z" fill="#7A7A7A"/>
</svg>
